<svg xmlns="http://www.w3.org/2000/svg" style="display:none">
  <symbol id="icon-edit" viewBox="0 0 16 16" fill="none">
    <path d="M11.5 2.5l2 2-8 8H3.5v-2l8-8z" stroke="currentColor" stroke-width="1.5" stroke-linejoin="round"/>
    <path d="M10 4l2 2" stroke="currentColor" stroke-width="1.5"/>
  </symbol>

  <symbol id="icon-mail" viewBox="0 0 16 16" fill="none">
    <rect x="2" y="3" width="12" height="10" rx="1.5" stroke="currentColor" stroke-width="1.5"/>
    <path d="M2 6l6 4 6-4" stroke="currentColor" stroke-width="1.5" stroke-linecap="round" stroke-linejoin="round"/>
  </symbol>

  <symbol id="icon-location" viewBox="0 0 16 16" fill="none">
    <path d="M8 1.5C5.515 1.5 3.5 3.515 3.5 6c0 3.75 4.5 8.5 4.5 8.5S12.5 9.75 12.5 6c0-2.485-2.015-4.5-4.5-4.5z" stroke="currentColor" stroke-width="1.5"/>
    <circle cx="8" cy="6" r="1.5" stroke="currentColor" stroke-width="1.5"/>
  </symbol>

  <symbol id="icon-calendar" viewBox="0 0 16 16" fill="none">
    <rect x="2" y="3" width="12" height="11" rx="2" stroke="currentColor" stroke-width="1.5"/>
    <path d="M5 1v3M11 1v3M2 7h12" stroke="currentColor" stroke-width="1.5" stroke-linecap="round"/>
  </symbol>

  <symbol id="icon-chevron-down" viewBox="0 0 16 16" fill="none">
    <path d="M4 6L8 10L12 6" stroke="currentColor" stroke-width="1.5" stroke-linecap="round" stroke-linejoin="round"/>
  </symbol>

  <symbol id="icon-close" viewBox="0 0 16 16" fill="none">
    <path d="M12 4L4 12M4 4l8 8" stroke="currentColor" stroke-width="1.5" stroke-linecap="round"/>
  </symbol>

  <symbol id="icon-search" viewBox="0 0 24 24" fill="none">
    <circle cx="11" cy="11" r="8" stroke="currentColor" stroke-width="2" stroke-linecap="round" stroke-linejoin="round"/>
    <path d="m21 21-4.35-4.35" stroke="currentColor" stroke-width="2" stroke-linecap="round" stroke-linejoin="round"/>
  </symbol>
</svg>
